<?xml version="1.0" encoding="UTF-8" standalone="no"?>
<!-- Created with Inkscape (http://www.inkscape.org/) -->

<svg
   xmlns:dc="http://purl.org/dc/elements/1.1/"
   xmlns:cc="http://creativecommons.org/ns#"
   xmlns:rdf="http://www.w3.org/1999/02/22-rdf-syntax-ns#"
   xmlns:svg="http://www.w3.org/2000/svg"
   xmlns="http://www.w3.org/2000/svg"
   xmlns:sodipodi="http://sodipodi.sourceforge.net/DTD/sodipodi-0.dtd"
   xmlns:inkscape="http://www.inkscape.org/namespaces/inkscape"
   width="240"
   height="360"
   id="svg3137"
   version="1.1"
   inkscape:version="0.48.4 r9939"
   sodipodi:docname="marchepunk4.svg">
  <defs
     id="defs3139" />
  <sodipodi:namedview
     id="base"
     pagecolor="#ffffff"
     bordercolor="#666666"
     borderopacity="1.0"
     inkscape:pageopacity="0.0"
     inkscape:pageshadow="2"
     inkscape:zoom="0.90509668"
     inkscape:cx="269.85883"
     inkscape:cy="165.88277"
     inkscape:document-units="px"
     inkscape:current-layer="layer1"
     showgrid="false"
     inkscape:window-width="1440"
     inkscape:window-height="876"
     inkscape:window-x="1600"
     inkscape:window-y="24"
     inkscape:window-maximized="1"
     showguides="true"
     inkscape:guide-bbox="true"
     objecttolerance="1"
     gridtolerance="1"
     guidetolerance="1">
    <sodipodi:guide
       orientation="0,1"
       position="162.14286,2.1428572"
       id="guide3112" />
    <sodipodi:guide
       orientation="0,1"
       position="620.92814,71.815533"
       id="guide3118" />
    <sodipodi:guide
       orientation="0,1"
       position="380.71429,277.14286"
       id="guide3120" />
    <sodipodi:guide
       orientation="0,1"
       position="383.85797,351.02801"
       id="guide3820" />
    <sodipodi:guide
       orientation="0,1"
       position="743.56698,182.30097"
       id="guide3044" />
  </sodipodi:namedview>
  <metadata
     id="metadata3142">
    <rdf:RDF>
      <cc:Work
         rdf:about="">
        <dc:format>image/svg+xml</dc:format>
        <dc:type
           rdf:resource="http://purl.org/dc/dcmitype/StillImage" />
        <dc:title></dc:title>
      </cc:Work>
    </rdf:RDF>
  </metadata>
  <g
     inkscape:label="Calque 1"
     inkscape:groupmode="layer"
     id="layer1"
     transform="translate(0,-692.36218)">
    <g
       id="g3070"
       transform="matrix(0.87706945,0,0,0.87706945,30.356225,168.5731)">
      <path
         sodipodi:nodetypes="ccccc"
         style="fill:#ac9393;stroke:#000000;stroke-width:0.07905754px;stroke-linecap:butt;stroke-linejoin:miter;stroke-opacity:1"
         d="m 321.97241,687.61014 48.33804,-2.93642 -1.1294,55.11441 -30.60049,54.53079 z"
         id="path7571"
         inkscape:connector-curvature="0" />
      <path
         sodipodi:nodetypes="ccccc"
         style="fill:#deaa87;stroke:#000000;stroke-width:0.07905754px;stroke-linecap:butt;stroke-linejoin:miter;stroke-opacity:1"
         d="m 335.12817,722.16845 -1.41006,-34.33242 24.62076,0.45176 -0.69368,31.59642 c -3.26481,-0.14208 -20.2999,3.31541 -22.51702,2.28424 z"
         id="path7597"
         inkscape:connector-curvature="0" />
      <g
         transform="matrix(0.07905756,0,0,0.07905756,869.7283,850.39492)"
         id="g7575">
        <path
           sodipodi:nodetypes="cccccccccccc"
           inkscape:connector-curvature="0"
           id="path7577"
           d="m -7445.7142,-99.066378 -94.2857,245.714288 34.2857,79.99999 100,48.57143 111.4286,-28.57143 45.7142,-74.28571 -8.5714,-48.57143 -22.8571,-5.71428 -34.2857,11.42857 -42.8572,51.42857 111.4286,-225.714285 z"
           style="fill:#e9c6af;stroke:#000000;stroke-width:1px;stroke-linecap:butt;stroke-linejoin:miter;stroke-opacity:1" />
        <path
           sodipodi:nodetypes="cccccc"
           inkscape:connector-curvature="0"
           id="path7579"
           d="m -7428.5714,-70.49495 -11.4285,211.42857 51.4285,37.14286 31.4286,-22.85715 71.4286,-194.285708 z"
           style="fill:#e9c6af;stroke:#000000;stroke-width:1px;stroke-linecap:butt;stroke-linejoin:miter;stroke-opacity:1" />
      </g>
      <path
         style="fill:#d45500;stroke:#000000;stroke-width:0.39528778;stroke-miterlimit:4;stroke-opacity:1;stroke-dasharray:none"
         d="m 282.99235,1007.3535 3.19443,-12.1387 29.38857,-8.9443 -15.97206,-15.3332 5.33028,-114.15388 c 22.95445,5.2873 31.80861,-13.29338 41.04342,-5.05463 l 5.3757,126.23621 -10.86099,8.3055 7.66658,5.7499 0.63888,14.0554 z"
         id="path7581"
         inkscape:connector-curvature="0"
         sodipodi:nodetypes="ccccccccccc" />
      <g
         id="g7583"
         transform="matrix(-0.07905756,0,0,0.07905756,-168.86224,847.2005)">
        <path
           style="fill:#e9c6af;stroke:#000000;stroke-width:1px;stroke-linecap:butt;stroke-linejoin:miter;stroke-opacity:1"
           d="m -7445.7142,-99.066378 -94.2857,245.714288 34.2857,79.99999 100,48.57143 111.4286,-28.57143 45.7142,-74.28571 -8.5714,-48.57143 -22.8571,-5.71428 -34.2857,11.42857 -42.8572,51.42857 111.4286,-225.714285 z"
           id="path7585"
           inkscape:connector-curvature="0"
           sodipodi:nodetypes="cccccccccccc" />
        <path
           style="fill:#e9c6af;stroke:#000000;stroke-width:1px;stroke-linecap:butt;stroke-linejoin:miter;stroke-opacity:1"
           d="m -7428.5714,-70.49495 -11.4285,211.42857 51.4285,37.14286 31.4286,-22.85715 71.4286,-194.285708 z"
           id="path7587"
           inkscape:connector-curvature="0"
           sodipodi:nodetypes="cccccc" />
      </g>
      <path
         style="fill:#d45500;stroke:#000000;stroke-width:0.39528778;stroke-miterlimit:4;stroke-opacity:1;stroke-dasharray:none"
         d="m 393.93852,855.31857 20.14747,110.35263 -15.97205,17.2498 21.08311,6.3888 3.1944,15.3332 -39.61067,0 -14.69426,1.2777 -2.55552,-17.8886 2.55552,-6.3889 -11.49987,-5.7499 -5.18856,-130.48911 c 7.84088,-10.00544 15.83767,9.80877 42.54043,9.91438 z"
         id="path7589"
         inkscape:connector-curvature="0"
         sodipodi:nodetypes="cccccccccccc" />
      <path
         style="fill:#d45500;stroke:none"
         d="m 315.42191,823.52137 69.57067,-2.71056 -2.71055,59.63199 -62.34254,0 z"
         id="path7591"
         inkscape:connector-curvature="0"
         sodipodi:nodetypes="ccccc" />
      <path
         style="fill:#ffd42a;stroke:#000000;stroke-width:0.39528778;stroke-linecap:butt;stroke-linejoin:miter;stroke-miterlimit:4;stroke-opacity:1;stroke-dasharray:none"
         d="m 304.31816,857.88463 41.84674,1.27776 c 0.68624,-2.0943 1.80342,-20.51015 2.87498,-25.23583 l 3.51385,25.55525 42.48562,-1.27775 0.61392,-4.30747 -1.94159,-30.50163 -2.60545,-3.50379 2.4557,-4.45222 0.43923,-25.51535 -2.31595,-3.75345 1.75694,-6.86793 0.31942,-29.70802 7.18744,86.88786 -0.79861,7.98601 3.1944,6.70831 22.36086,-9.58324 1.64713,-9.34363 -3.14451,-9.0242 -10.44171,-75.8672 -3.63366,-7.34712 -0.23957,-14.0554 -6.86799,-17.88869 -27.79134,-11.49987 -4.96267,-12.5905 -1.42613,15.78491 -21.08309,3.83329 -1.91664,82.41568 -3.83331,-79.86016 -17.2498,-2.55552 -1.91665,-17.24981 -5.74991,15.97205 -26.83303,8.94434 -8.94436,17.88867 0.63888,17.24981 -3.51383,11.81931 -3.67356,70.4367 -4.39232,12.85747 5.82978,5.19095 21.72199,3.19435 3.35414,-5.9096 -0.2396,-6.78812 9.98254,-83.45392 0.47916,26.99272 1.51732,3.9132 -2.11629,6.42873 -2.01647,26.53353 1.86672,4.64189 -2.58047,2.95982 -5.12353,28.63233 z"
         id="path7593"
         inkscape:connector-curvature="0"
         sodipodi:nodetypes="ccccccccccccccccccccccccccccccccccccccccccccccccccc" />
      <path
         transform="matrix(0.07905756,0,0,0.07905756,869.7283,850.39492)"
         sodipodi:type="arc"
         id="path7595"
         style="fill:#000000;stroke:none"
         sodipodi:cx="-7022.5806"
         sodipodi:cy="-272.95795"
         sodipodi:rx="1.5"
         sodipodi:ry="1.5"
         d="m -7021.0806,-272.95795 a 1.5,1.5 0 1 1 -3,0 1.5,1.5 0 1 1 3,0 z" />
      <path
         style="fill:#dcc6af;fill-opacity:1;stroke:none"
         d="m 375.87289,641.62322 1.43749,-2.23608 2.07636,0 -1.91665,24.11778 -2.07636,-0.15972 -1.11802,-3.67357 z"
         id="path7599"
         inkscape:connector-curvature="0" />
      <path
         inkscape:connector-curvature="0"
         id="path7601"
         d="m 315.01945,641.93783 -1.43751,-2.23607 -2.07634,0 1.91662,24.11778 2.07637,-0.15972 1.11804,-3.67357 z"
         style="fill:#dcc6af;fill-opacity:1;stroke:none" />
      <path
         style="fill:#e9c6af;stroke:none"
         d="m 343.33739,607.79452 c 29.4062,-0.73518 32.34684,22.42221 33.082,39.3308 0.73514,16.90858 -11.02735,45.94723 -20.58436,46.68237 -9.55704,0.73515 -12.49764,2.94061 -22.05466,-0.73516 -9.55701,-3.67578 -19.8492,-36.39019 -19.8492,-45.94721 0,-9.55699 1.47033,-38.59565 29.40622,-39.3308 z"
         id="path7603"
         inkscape:connector-curvature="0"
         sodipodi:nodetypes="cssssc" />
      <path
         style="fill:#916f6f;stroke:#000000;stroke-width:0.07905754px;stroke-linecap:butt;stroke-linejoin:miter;stroke-opacity:1"
         d="m 365.97023,823.06556 19.16644,-8.62491 -12.45818,7.66658 z"
         id="path7611"
         inkscape:connector-curvature="0" />
      <path
         style="fill:#916f6f;stroke:#000000;stroke-width:0.07905754px;stroke-linecap:butt;stroke-linejoin:miter;stroke-opacity:1"
         d="m 314.85971,820.82948 20.44421,5.11108 -7.0277,0.95833 z"
         id="path7613"
         inkscape:connector-curvature="0"
         sodipodi:nodetypes="cccc" />
      <path
         style="fill:#916f6f;stroke:#000000;stroke-width:0.07905754px;stroke-linecap:butt;stroke-linejoin:miter;stroke-opacity:1"
         d="m 366.28966,740.96929 19.80533,-1.5972 -3.1944,1.91665 z"
         id="path7615"
         inkscape:connector-curvature="0" />
      <path
         transform="matrix(0.07905756,0,0,0.07905756,869.7283,850.39492)"
         sodipodi:type="arc"
         id="path7617"
         style="fill:#000000;stroke:none"
         sodipodi:cx="-7002.3774"
         sodipodi:cy="-1852.8365"
         sodipodi:rx="1.5"
         sodipodi:ry="1.5"
         d="m -7000.8774,-1852.8365 a 1.5,1.5 0 1 1 -3,0 1.5,1.5 0 1 1 3,0 z" />
      <path
         transform="matrix(0.07905756,0,0,0.07905756,869.7283,850.39492)"
         sodipodi:type="arc"
         id="path7619"
         style="fill:#000000;stroke:none"
         sodipodi:cx="-6961.9712"
         sodipodi:cy="-1824.5522"
         sodipodi:rx="1.5"
         sodipodi:ry="1.5"
         d="m -6960.4712,-1824.5522 a 1.5,1.5 0 1 1 -3,0 1.5,1.5 0 1 1 3,0 z" />
      <path
         style="fill:none;stroke:#000000;stroke-width:0.39528778;stroke-linecap:butt;stroke-linejoin:miter;stroke-miterlimit:4;stroke-opacity:1;stroke-dasharray:none"
         d="m 319.97076,703.91417 18.29444,31.68688"
         id="path7621"
         inkscape:connector-curvature="0" />
      <path
         style="fill:none;stroke:#000000;stroke-width:0.39528778;stroke-linecap:butt;stroke-linejoin:miter;stroke-miterlimit:4;stroke-opacity:1;stroke-dasharray:none"
         d="M 372.67849,702.31697 351.5954,736.17768"
         id="path7623"
         inkscape:connector-curvature="0" />
      <path
         style="fill:none;stroke:#000000;stroke-width:0.39528778;stroke-linecap:butt;stroke-linejoin:miter;stroke-miterlimit:4;stroke-opacity:1;stroke-dasharray:none"
         d="m 349.67875,741.92762 -2.55552,53.34661"
         id="path7625"
         inkscape:connector-curvature="0" />
      <path
         style="fill:none;stroke:#000000;stroke-width:0.39528778;stroke-linecap:butt;stroke-linejoin:miter;stroke-miterlimit:4;stroke-opacity:1;stroke-dasharray:none"
         d="m 345.20657,789.84373 3.51386,45.36058"
         id="path7627"
         inkscape:connector-curvature="0" />
      <g
         transform="matrix(-0.07905756,0,0,-0.07905756,16.019361,452.95605)"
         id="g7653">
        <path
           sodipodi:nodetypes="ccccc"
           inkscape:connector-curvature="0"
           id="path7629"
           d="m -4472.9346,-2574.4748 249.6574,-19.2034 -19.9696,165.0557 -189.6922,11.7446 z"
           style="fill:#ffffff;stroke:#000000;stroke-width:1.34259343px;stroke-linecap:butt;stroke-linejoin:miter;stroke-opacity:1" />
        <path
           sodipodi:nodetypes="ccccc"
           inkscape:connector-curvature="0"
           id="path7631"
           d="m -4381.699,-2522.7912 15.9934,64.6777 57.3942,-5.7143 16.6558,-67.1862 z"
           style="fill:#483737;stroke:#000000;stroke-width:0.95674413px;stroke-linecap:butt;stroke-linejoin:miter;stroke-opacity:1" />
      </g>
      <g
         transform="matrix(-0.07905756,0,0,-0.07905756,16.019361,452.95605)"
         id="g7649">
        <path
           style="fill:#ffffff;stroke:#000000;stroke-width:1.34259343px;stroke-linecap:butt;stroke-linejoin:miter;stroke-opacity:1"
           d="m -3844.7058,-2583.0462 -249.6574,-19.2034 19.9696,165.0557 189.6922,11.7446 z"
           id="path7633"
           inkscape:connector-curvature="0"
           sodipodi:nodetypes="ccccc" />
        <path
           style="fill:#483737;stroke:#000000;stroke-width:0.95674413px;stroke-linecap:butt;stroke-linejoin:miter;stroke-opacity:1"
           d="m -3935.9414,-2531.3626 -15.9934,64.6777 -57.3942,-5.7143 -16.6558,-67.1862 z"
           id="path7635"
           inkscape:connector-curvature="0"
           sodipodi:nodetypes="ccccc" />
      </g>
      <path
         style="fill:#916f6f;stroke:#000000;stroke-width:0.07905754px;stroke-linecap:butt;stroke-linejoin:miter;stroke-opacity:1"
         d="m 371.12042,635.4316 -21.57142,7.22811 0.45173,-3.83992 19.87733,-4.40465 z"
         id="path7637"
         inkscape:connector-curvature="0" />
      <path
         inkscape:connector-curvature="0"
         id="path7639"
         d="m 318.9424,636.10924 21.57143,7.22811 -0.45176,-3.83995 -19.87733,-4.40462 z"
         style="fill:#916f6f;stroke:#000000;stroke-width:0.07905754px;stroke-linecap:butt;stroke-linejoin:miter;stroke-opacity:1" />
      <path
         style="fill:#483e37;stroke:#000000;stroke-width:0.07905754px;stroke-linecap:butt;stroke-linejoin:miter;stroke-opacity:1"
         d="m 336.54157,678.51853 c 0.90352,-0.22589 3.38819,-1.24234 4.06583,-0.90352 0.67764,0.33881 6.5505,0.67763 8.47044,0 1.91998,-0.67764 3.72699,0.33881 4.74347,0.90352 -1.25957,-0.43357 -3.18287,-1.28276 -4.31226,-0.71796 -1.1294,0.56481 -7.52465,0.56588 -9.45951,0.0799 -0.81678,-0.12665 -1.69625,0.26501 -3.50797,0.63809 z"
         id="path7641"
         inkscape:connector-curvature="0"
         sodipodi:nodetypes="ccccccc" />
      <path
         sodipodi:nodetypes="ccccccc"
         inkscape:connector-curvature="0"
         id="path7643"
         d="m 341.61279,667.75869 c 0.31196,-0.078 1.16988,-0.42893 1.40384,-0.31195 0.23396,0.11698 2.26172,0.23398 2.92462,0 0.66294,-0.23398 1.28683,0.11698 1.6378,0.31195 -0.43489,-0.1497 -1.09896,-0.4429 -1.48892,-0.24788 -0.38994,0.19501 -2.59806,0.19538 -3.2661,0.0276 -0.28203,-0.0438 -0.58568,0.0915 -1.21124,0.22031 z"
         style="fill:#483e37;stroke:#000000;stroke-width:0.02729652px;stroke-linecap:butt;stroke-linejoin:miter;stroke-opacity:1" />
      <path
         inkscape:connector-curvature="0"
         id="path7645"
         d="m 386.09499,740.96929 -19.80533,-1.5972 3.19442,1.91665 z"
         style="fill:#916f6f;stroke:#000000;stroke-width:0.07905754px;stroke-linecap:butt;stroke-linejoin:miter;stroke-opacity:1" />
      <path
         style="fill:#916f6f;stroke:#000000;stroke-width:0.07905754px;stroke-linecap:butt;stroke-linejoin:miter;stroke-opacity:1"
         d="m 315.17916,741.92762 19.80531,-1.59721 -3.1944,1.91665 z"
         id="path7647"
         inkscape:connector-curvature="0" />
      <path
         sodipodi:nodetypes="ccccccccccccccccscccccccccccc"
         inkscape:connector-curvature="0"
         id="path7737"
         d="m 335.9428,626.29006 -17.56924,-26.83301 16.61091,19.80531 -13.09708,-28.43021 13.41653,22.36083 -9.26377,-31.94406 13.09707,29.70799 -3.8333,-36.41625 5.43051,30.02742 3.83327,-34.18017 -0.31942,34.81906 2.87495,-30.66631 0.31945,32.26351 5.74992,-28.74965 -3.83327,32.26348 13.4165,-28.11076 c 0,0 -11.49988,31.62464 -11.18043,30.34687 0.31946,-1.27778 21.08309,-22.99974 21.08309,-22.99974 l -20.12476,27.15246 21.72198,-16.61093 -25.87471,28.43023 0.31943,-4.47214 -3.1944,3.51382 -6.70826,-10.54153 2.87498,9.90265 -5.74995,-7.98602 3.51385,7.6666 -4.15273,-5.11108 z"
         style="fill:#00ff00;stroke:#000000;stroke-width:0.07905754px;stroke-linecap:butt;stroke-linejoin:miter;stroke-opacity:1" />
    </g>
    <path
       style="fill:#ffb380;stroke:none"
       d="m 502.95189,755.37733 -1.01015,27.7792 23.23351,3.03045 3.53553,-23.2335 -19.1929,-8.08122 z"
       id="path3822"
       inkscape:connector-curvature="0"
       sodipodi:nodetypes="cccccc" />
    <path
       style="fill:#000000;fill-opacity:1;stroke:#000000;stroke-width:0.96315867px;stroke-linecap:butt;stroke-linejoin:miter;stroke-opacity:1"
       d="m 500.62106,1050.2193 50.06905,0.042 9.39444,-0.5471 0.0558,-7.0115 -21.78741,-9.8738 -11.01334,-11.6381 -22.86403,0 -2.3207,5.7818 -3.96618,5.2473 -0.97293,11.6753 z"
       id="path3040"
       inkscape:connector-curvature="0"
       sodipodi:nodetypes="ccccccccccc" />
    <path
       style="fill:#d45500;fill-opacity:1;stroke:#000000;stroke-width:0.84123987px;stroke-linecap:butt;stroke-linejoin:miter;stroke-opacity:1"
       d="m 509.1877,974.90202 9.02225,-0.80558 8.88788,-0.34399 5.9143,3.73155 1.77099,10.24988 2.21612,14.41902 4.61835,14.7467 -7.63864,7.7942 -13.77835,1.5537 -10.60771,-0.3713 -5.28264,-2.2418 -7.80789,-9.55 2.87734,-12.8743 1.14754,-11.99418 0.45726,-6.0756 1.06235,-6.37459 z"
       id="path3126"
       inkscape:connector-curvature="0"
       sodipodi:nodetypes="ccccccccccccccccc" />
    <path
       style="fill:#d45500;fill-opacity:1;stroke:#000000;stroke-width:0.84123987px;stroke-linecap:butt;stroke-linejoin:miter;stroke-opacity:1"
       d="m 492.96056,899.3152 46.86907,1.11614 4.80708,6.00887 0.25691,10.29342 -3.26133,10.73758 -4.39343,36.3405 0.0784,7.10177 0.69596,5.80663 -5.75123,6.38088 -25.57333,0 -8.93055,-4.46308 0.95357,-9.27453 -0.43542,-6.69248 -5.91655,-29.79172 -7.55897,-16.66516 2.15099,-13.8944 z"
       id="path3124"
       inkscape:connector-curvature="0"
       sodipodi:nodetypes="ccccccccccccccccc" />
    <path
       style="fill:#ffd42a;fill-opacity:1;stroke:#000000;stroke-width:0.96315867;stroke-opacity:1"
       d="m 497.77125,775.21122 32.01817,5.78002 1.47802,7.44789 8.16314,0.94599 8.66822,23.16934 -0.40928,11.2909 -2.72141,14.93712 -0.4107,22.40911 -1.00443,14.42125 4.89634,12.36387 1.4565,17.17968 -5.15107,4.55018 -54.59363,-0.68797 -8.4124,-7.81151 0.59653,-11.07721 0.44525,-9.2548 3.4757,-9.25481 -2.13997,-7.39793 -2.33393,-52.57258 1.0452,-15.9722 13.78958,-12.08274 z"
       id="path3122"
       inkscape:connector-curvature="0"
       sodipodi:nodetypes="cccccccccccccccccccccc" />
    <path
       style="fill:#ffccaa;stroke:#000000;stroke-width:0.96315867;stroke-opacity:1"
       d="m 504.38234,900.06012 18.48581,-0.97294 -0.48647,8.5132 3.64851,10.09423 0.24324,12.0401 -2.43234,7.29702 -2.43234,3.40529 -9.72938,0.97293 -6.81055,-1.45941 -0.97295,-5.35115 0.50603,-0.97294 3.40528,-7.29702 -0.48647,-1.94588 -1.96542,-3.40528 -1.45941,-7.54026 4.13498,-6.81057 z"
       id="path3038"
       inkscape:connector-curvature="0"
       sodipodi:nodetypes="ccccccccccccccccc" />
    <path
       style="fill:#ffd42a;fill-opacity:1;stroke:#000000;stroke-width:0.84123987px;stroke-linecap:butt;stroke-linejoin:miter;stroke-opacity:1"
       d="m 498.31091,862.68101 -3.16988,5.6344 2.05956,4.97253 2.60088,19.41122 -2.48988,4.77104 0.38243,4.11162 5.28169,2.53417 20.84251,-0.60088 4.81144,-1.80267 0.52384,-5.77071 -3.47649,-3.73266 1.34298,-17.53648 3.17861,-5.40796 -4.45875,-6.58362 z"
       id="path3116"
       inkscape:connector-curvature="0"
       sodipodi:nodetypes="ccccccccccccccc" />
    <path
       style="fill:#ffd42a;fill-opacity:1;stroke:#000000;stroke-width:0.84123987px;stroke-linecap:butt;stroke-linejoin:miter;stroke-opacity:1"
       d="m 500.75806,797.66343 -7.22182,8.85067 -2.27971,11.17493 3.56637,13.09507 1.68535,23.72835 -2.14228,9.94508 9.61417,4.2062 21.83808,-0.60087 5.40797,-4.8071 -4.31699,-8.56846 -0.6639,-22.49848 2.08801,-8.73908 -1.37306,-16.05194 -7.53411,-9.3251 z"
       id="path3114"
       inkscape:connector-curvature="0"
       sodipodi:nodetypes="ccccccccccccccc" />
    <g
       id="g3816"
       transform="matrix(1.2132623,0,0,1.2132623,-10.09909,-146.19014)">
      <path
         transform="translate(-1.0101525,688.32157)"
         d="m 454.06358,33.72073 a 22.728432,22.728432 0 1 1 -45.45687,0 22.728432,22.728432 0 1 1 45.45687,0 z"
         sodipodi:ry="22.728432"
         sodipodi:rx="22.728432"
         sodipodi:cy="33.72073"
         sodipodi:cx="431.33514"
         id="path3812"
         style="fill:#ffccaa;fill-opacity:1;fill-rule:evenodd;stroke:none"
         sodipodi:type="arc" />
      <path
         transform="translate(0,692.36218)"
         inkscape:connector-curvature="0"
         id="path3814"
         d="m 452.54834,28.164889 4.04061,21.213204 -2.52538,13.131983 -16.16244,4.04061 -7.07107,-4.545687 -1.51523,-13.637059 z"
         style="fill:#ffccaa;stroke:none" />
    </g>
    <g
       transform="matrix(0.87706945,0,0,0.87706945,906.76764,166.55279)"
       id="g4015">
      <path
         inkscape:connector-curvature="0"
         id="path4017"
         d="m 321.97241,687.61014 48.33804,-2.93642 -1.1294,55.11441 -30.60049,54.53079 z"
         style="fill:#ac9393;stroke:#000000;stroke-width:0.07905754px;stroke-linecap:butt;stroke-linejoin:miter;stroke-opacity:1"
         sodipodi:nodetypes="ccccc" />
      <path
         inkscape:connector-curvature="0"
         id="path4019"
         d="m 335.12817,722.16845 -1.41006,-34.33242 24.62076,0.45176 -0.69368,31.59642 c -3.26481,-0.14208 -20.2999,3.31541 -22.51702,2.28424 z"
         style="fill:#deaa87;stroke:#000000;stroke-width:0.07905754px;stroke-linecap:butt;stroke-linejoin:miter;stroke-opacity:1"
         sodipodi:nodetypes="ccccc" />
      <g
         id="g4021"
         transform="matrix(0.07905756,0,0,0.07905756,869.7283,850.39492)">
        <path
           style="fill:#e9c6af;stroke:#000000;stroke-width:1px;stroke-linecap:butt;stroke-linejoin:miter;stroke-opacity:1"
           d="m -7445.7142,-99.066378 -94.2857,245.714288 34.2857,79.99999 100,48.57143 111.4286,-28.57143 45.7142,-74.28571 -8.5714,-48.57143 -22.8571,-5.71428 -34.2857,11.42857 -42.8572,51.42857 111.4286,-225.714285 z"
           id="path4023"
           inkscape:connector-curvature="0"
           sodipodi:nodetypes="cccccccccccc" />
        <path
           style="fill:#e9c6af;stroke:#000000;stroke-width:1px;stroke-linecap:butt;stroke-linejoin:miter;stroke-opacity:1"
           d="m -7428.5714,-70.49495 -11.4285,211.42857 51.4285,37.14286 31.4286,-22.85715 71.4286,-194.285708 z"
           id="path4025"
           inkscape:connector-curvature="0"
           sodipodi:nodetypes="cccccc" />
      </g>
      <path
         sodipodi:nodetypes="ccccccccccc"
         inkscape:connector-curvature="0"
         id="path4027"
         d="m 282.99235,1007.3535 3.19443,-12.1387 29.38857,-8.9443 -15.97206,-15.3332 5.33028,-114.15388 c 22.95445,5.2873 31.80861,-13.29338 41.04342,-5.05463 l 5.3757,126.23621 -10.86099,8.3055 7.66658,5.7499 0.63888,14.0554 z"
         style="fill:#d45500;stroke:#000000;stroke-width:0.39528778;stroke-miterlimit:4;stroke-opacity:1;stroke-dasharray:none" />
      <g
         transform="matrix(-0.07905756,0,0,0.07905756,-168.86224,847.2005)"
         id="g4029">
        <path
           sodipodi:nodetypes="cccccccccccc"
           inkscape:connector-curvature="0"
           id="path4031"
           d="m -7445.7142,-99.066378 -94.2857,245.714288 34.2857,79.99999 100,48.57143 111.4286,-28.57143 45.7142,-74.28571 -8.5714,-48.57143 -22.8571,-5.71428 -34.2857,11.42857 -42.8572,51.42857 111.4286,-225.714285 z"
           style="fill:#e9c6af;stroke:#000000;stroke-width:1px;stroke-linecap:butt;stroke-linejoin:miter;stroke-opacity:1" />
        <path
           sodipodi:nodetypes="cccccc"
           inkscape:connector-curvature="0"
           id="path4033"
           d="m -7428.5714,-70.49495 -11.4285,211.42857 51.4285,37.14286 31.4286,-22.85715 71.4286,-194.285708 z"
           style="fill:#e9c6af;stroke:#000000;stroke-width:1px;stroke-linecap:butt;stroke-linejoin:miter;stroke-opacity:1" />
      </g>
      <path
         sodipodi:nodetypes="cccccccccccc"
         inkscape:connector-curvature="0"
         id="path4035"
         d="m 393.93852,855.31857 20.14747,110.35263 -15.97205,17.2498 21.08311,6.3888 3.1944,15.3332 -39.61067,0 -14.69426,1.2777 -2.55552,-17.8886 2.55552,-6.3889 -11.49987,-5.7499 -5.18856,-130.48911 c 7.84088,-10.00544 15.83767,9.80877 42.54043,9.91438 z"
         style="fill:#d45500;stroke:#000000;stroke-width:0.39528778;stroke-miterlimit:4;stroke-opacity:1;stroke-dasharray:none" />
      <path
         sodipodi:nodetypes="ccccc"
         inkscape:connector-curvature="0"
         id="path4037"
         d="m 315.42191,823.52137 69.57067,-2.71056 -2.71055,59.63199 -62.34254,0 z"
         style="fill:#d45500;stroke:none" />
      <path
         sodipodi:nodetypes="ccccccccccccccccccccccccccccccccccccccccccccccccccc"
         inkscape:connector-curvature="0"
         id="path4039"
         d="m 304.31816,857.88463 41.84674,1.27776 c 0.68624,-2.0943 1.80342,-20.51015 2.87498,-25.23583 l 3.51385,25.55525 42.48562,-1.27775 0.61392,-4.30747 -1.94159,-30.50163 -2.60545,-3.50379 2.4557,-4.45222 0.43923,-25.51535 -2.31595,-3.75345 1.75694,-6.86793 0.31942,-29.70802 7.18744,86.88786 -0.79861,7.98601 3.1944,6.70831 22.36086,-9.58324 1.64713,-9.34363 -3.14451,-9.0242 -10.44171,-75.8672 -3.63366,-7.34712 -0.23957,-14.0554 -6.86799,-17.88869 -27.79134,-11.49987 -4.96267,-12.5905 -1.42613,15.78491 -21.08309,3.83329 -1.91664,82.41568 -3.83331,-79.86016 -17.2498,-2.55552 -1.91665,-17.24981 -5.74991,15.97205 -26.83303,8.94434 -8.94436,17.88867 0.63888,17.24981 -3.51383,11.81931 -3.67356,70.4367 -4.39232,12.85747 5.82978,5.19095 21.72199,3.19435 3.35414,-5.9096 -0.2396,-6.78812 9.98254,-83.45392 0.47916,26.99272 1.51732,3.9132 -2.11629,6.42873 -2.01647,26.53353 1.86672,4.64189 -2.58047,2.95982 -5.12353,28.63233 z"
         style="fill:#ffd42a;stroke:#000000;stroke-width:0.39528778;stroke-linecap:butt;stroke-linejoin:miter;stroke-miterlimit:4;stroke-opacity:1;stroke-dasharray:none" />
      <path
         d="m -7021.0806,-272.95795 a 1.5,1.5 0 1 1 -3,0 1.5,1.5 0 1 1 3,0 z"
         sodipodi:ry="1.5"
         sodipodi:rx="1.5"
         sodipodi:cy="-272.95795"
         sodipodi:cx="-7022.5806"
         style="fill:#000000;stroke:none"
         id="path4041"
         sodipodi:type="arc"
         transform="matrix(0.07905756,0,0,0.07905756,869.7283,850.39492)" />
      <path
         inkscape:connector-curvature="0"
         id="path4043"
         d="m 375.87289,641.62322 1.43749,-2.23608 2.07636,0 -1.91665,24.11778 -2.07636,-0.15972 -1.11802,-3.67357 z"
         style="fill:#dcc6af;fill-opacity:1;stroke:none" />
      <path
         style="fill:#dcc6af;fill-opacity:1;stroke:none"
         d="m 315.01945,641.93783 -1.43751,-2.23607 -2.07634,0 1.91662,24.11778 2.07637,-0.15972 1.11804,-3.67357 z"
         id="path4045"
         inkscape:connector-curvature="0" />
      <path
         sodipodi:nodetypes="cssssc"
         inkscape:connector-curvature="0"
         id="path4047"
         d="m 343.33739,607.79452 c 29.4062,-0.73518 32.34684,22.42221 33.082,39.3308 0.73514,16.90858 -11.02735,45.94723 -20.58436,46.68237 -9.55704,0.73515 -12.49764,2.94061 -22.05466,-0.73516 -9.55701,-3.67578 -19.8492,-36.39019 -19.8492,-45.94721 0,-9.55699 1.47033,-38.59565 29.40622,-39.3308 z"
         style="fill:#e9c6af;stroke:none" />
      <path
         inkscape:connector-curvature="0"
         id="path4049"
         d="m 365.97023,823.06556 19.16644,-8.62491 -12.45818,7.66658 z"
         style="fill:#916f6f;stroke:#000000;stroke-width:0.07905754px;stroke-linecap:butt;stroke-linejoin:miter;stroke-opacity:1" />
      <path
         sodipodi:nodetypes="cccc"
         inkscape:connector-curvature="0"
         id="path4051"
         d="m 314.85971,820.82948 20.44421,5.11108 -7.0277,0.95833 z"
         style="fill:#916f6f;stroke:#000000;stroke-width:0.07905754px;stroke-linecap:butt;stroke-linejoin:miter;stroke-opacity:1" />
      <path
         inkscape:connector-curvature="0"
         id="path4053"
         d="m 366.28966,740.96929 19.80533,-1.5972 -3.1944,1.91665 z"
         style="fill:#916f6f;stroke:#000000;stroke-width:0.07905754px;stroke-linecap:butt;stroke-linejoin:miter;stroke-opacity:1" />
      <path
         d="m -7000.8774,-1852.8365 a 1.5,1.5 0 1 1 -3,0 1.5,1.5 0 1 1 3,0 z"
         sodipodi:ry="1.5"
         sodipodi:rx="1.5"
         sodipodi:cy="-1852.8365"
         sodipodi:cx="-7002.3774"
         style="fill:#000000;stroke:none"
         id="path4055"
         sodipodi:type="arc"
         transform="matrix(0.07905756,0,0,0.07905756,869.7283,850.39492)" />
      <path
         d="m -6960.4712,-1824.5522 a 1.5,1.5 0 1 1 -3,0 1.5,1.5 0 1 1 3,0 z"
         sodipodi:ry="1.5"
         sodipodi:rx="1.5"
         sodipodi:cy="-1824.5522"
         sodipodi:cx="-6961.9712"
         style="fill:#000000;stroke:none"
         id="path4057"
         sodipodi:type="arc"
         transform="matrix(0.07905756,0,0,0.07905756,869.7283,850.39492)" />
      <path
         inkscape:connector-curvature="0"
         id="path4059"
         d="m 319.97076,703.91417 18.29444,31.68688"
         style="fill:none;stroke:#000000;stroke-width:0.39528778;stroke-linecap:butt;stroke-linejoin:miter;stroke-miterlimit:4;stroke-opacity:1;stroke-dasharray:none" />
      <path
         inkscape:connector-curvature="0"
         id="path4061"
         d="M 372.67849,702.31697 351.5954,736.17768"
         style="fill:none;stroke:#000000;stroke-width:0.39528778;stroke-linecap:butt;stroke-linejoin:miter;stroke-miterlimit:4;stroke-opacity:1;stroke-dasharray:none" />
      <path
         inkscape:connector-curvature="0"
         id="path4063"
         d="m 349.67875,741.92762 -2.55552,53.34661"
         style="fill:none;stroke:#000000;stroke-width:0.39528778;stroke-linecap:butt;stroke-linejoin:miter;stroke-miterlimit:4;stroke-opacity:1;stroke-dasharray:none" />
      <path
         inkscape:connector-curvature="0"
         id="path4065"
         d="m 345.20657,789.84373 3.51386,45.36058"
         style="fill:none;stroke:#000000;stroke-width:0.39528778;stroke-linecap:butt;stroke-linejoin:miter;stroke-miterlimit:4;stroke-opacity:1;stroke-dasharray:none" />
      <g
         id="g4067"
         transform="matrix(-0.07905756,0,0,-0.07905756,16.019361,452.95605)">
        <path
           style="fill:#ffffff;stroke:#000000;stroke-width:1.34259343px;stroke-linecap:butt;stroke-linejoin:miter;stroke-opacity:1"
           d="m -4472.9346,-2574.4748 249.6574,-19.2034 -19.9696,165.0557 -189.6922,11.7446 z"
           id="path4069"
           inkscape:connector-curvature="0"
           sodipodi:nodetypes="ccccc" />
        <path
           style="fill:#483737;stroke:#000000;stroke-width:0.95674413px;stroke-linecap:butt;stroke-linejoin:miter;stroke-opacity:1"
           d="m -4381.699,-2522.7912 15.9934,64.6777 57.3942,-5.7143 16.6558,-67.1862 z"
           id="path4071"
           inkscape:connector-curvature="0"
           sodipodi:nodetypes="ccccc" />
      </g>
      <g
         id="g4073"
         transform="matrix(-0.07905756,0,0,-0.07905756,16.019361,452.95605)">
        <path
           sodipodi:nodetypes="ccccc"
           inkscape:connector-curvature="0"
           id="path4075"
           d="m -3844.7058,-2583.0462 -249.6574,-19.2034 19.9696,165.0557 189.6922,11.7446 z"
           style="fill:#ffffff;stroke:#000000;stroke-width:1.34259343px;stroke-linecap:butt;stroke-linejoin:miter;stroke-opacity:1" />
        <path
           sodipodi:nodetypes="ccccc"
           inkscape:connector-curvature="0"
           id="path4077"
           d="m -3935.9414,-2531.3626 -15.9934,64.6777 -57.3942,-5.7143 -16.6558,-67.1862 z"
           style="fill:#483737;stroke:#000000;stroke-width:0.95674413px;stroke-linecap:butt;stroke-linejoin:miter;stroke-opacity:1" />
      </g>
      <path
         inkscape:connector-curvature="0"
         id="path4079"
         d="m 371.12042,635.4316 -21.57142,7.22811 0.45173,-3.83992 19.87733,-4.40465 z"
         style="fill:#916f6f;stroke:#000000;stroke-width:0.07905754px;stroke-linecap:butt;stroke-linejoin:miter;stroke-opacity:1" />
      <path
         style="fill:#916f6f;stroke:#000000;stroke-width:0.07905754px;stroke-linecap:butt;stroke-linejoin:miter;stroke-opacity:1"
         d="m 318.9424,636.10924 21.57143,7.22811 -0.45176,-3.83995 -19.87733,-4.40462 z"
         id="path4081"
         inkscape:connector-curvature="0" />
      <path
         sodipodi:nodetypes="ccccccc"
         inkscape:connector-curvature="0"
         id="path4083"
         d="m 336.54157,678.51853 c 0.90352,-0.22589 3.38819,-1.24234 4.06583,-0.90352 0.67764,0.33881 6.5505,0.67763 8.47044,0 1.91998,-0.67764 3.72699,0.33881 4.74347,0.90352 -1.25957,-0.43357 -3.18287,-1.28276 -4.31226,-0.71796 -1.1294,0.56481 -7.52465,0.56588 -9.45951,0.0799 -0.81678,-0.12665 -1.69625,0.26501 -3.50797,0.63809 z"
         style="fill:#483e37;stroke:#000000;stroke-width:0.07905754px;stroke-linecap:butt;stroke-linejoin:miter;stroke-opacity:1" />
      <path
         style="fill:#483e37;stroke:#000000;stroke-width:0.02729652px;stroke-linecap:butt;stroke-linejoin:miter;stroke-opacity:1"
         d="m 341.61279,667.75869 c 0.31196,-0.078 1.16988,-0.42893 1.40384,-0.31195 0.23396,0.11698 2.26172,0.23398 2.92462,0 0.66294,-0.23398 1.28683,0.11698 1.6378,0.31195 -0.43489,-0.1497 -1.09896,-0.4429 -1.48892,-0.24788 -0.38994,0.19501 -2.59806,0.19538 -3.2661,0.0276 -0.28203,-0.0438 -0.58568,0.0915 -1.21124,0.22031 z"
         id="path4085"
         inkscape:connector-curvature="0"
         sodipodi:nodetypes="ccccccc" />
      <path
         style="fill:#916f6f;stroke:#000000;stroke-width:0.07905754px;stroke-linecap:butt;stroke-linejoin:miter;stroke-opacity:1"
         d="m 386.09499,740.96929 -19.80533,-1.5972 3.19442,1.91665 z"
         id="path4087"
         inkscape:connector-curvature="0" />
      <path
         inkscape:connector-curvature="0"
         id="path4089"
         d="m 315.17916,741.92762 19.80531,-1.59721 -3.1944,1.91665 z"
         style="fill:#916f6f;stroke:#000000;stroke-width:0.07905754px;stroke-linecap:butt;stroke-linejoin:miter;stroke-opacity:1" />
      <path
         style="fill:#00ff00;stroke:#000000;stroke-width:0.07905754px;stroke-linecap:butt;stroke-linejoin:miter;stroke-opacity:1"
         d="m 335.9428,626.29006 -17.56924,-26.83301 16.61091,19.80531 -13.09708,-28.43021 13.41653,22.36083 -9.26377,-31.94406 13.09707,29.70799 -3.8333,-36.41625 5.43051,30.02742 3.83327,-34.18017 -0.31942,34.81906 2.87495,-30.66631 0.31945,32.26351 5.74992,-28.74965 -3.83327,32.26348 13.4165,-28.11076 c 0,0 -11.49988,31.62464 -11.18043,30.34687 0.31946,-1.27778 21.08309,-22.99974 21.08309,-22.99974 l -20.12476,27.15246 21.72198,-16.61093 -25.87471,28.43023 0.31943,-4.47214 -3.1944,3.51382 -6.70826,-10.54153 2.87498,9.90265 -5.74995,-7.98602 3.51385,7.6666 -4.15273,-5.11108 z"
         id="path4091"
         inkscape:connector-curvature="0"
         sodipodi:nodetypes="ccccccccccccccccscccccccccccc" />
    </g>
    <g
       id="g3856"
       transform="matrix(0.81915205,0.57357645,-0.57357645,0.81915205,-175.28109,-389.7357)">
      <path
         sodipodi:nodetypes="ccccccccccccccccc"
         inkscape:connector-curvature="0"
         id="path3082"
         d="m 872.95377,892.20297 18.48581,-0.97294 -0.48647,8.5132 3.64851,10.09423 0.24324,12.0401 -2.43234,7.29702 -2.43234,3.40529 -9.72938,0.97293 -6.81055,-1.45941 -0.97295,-5.35115 0.50603,-0.97294 3.40528,-7.29702 -0.48647,-1.94588 -1.96542,-3.40528 -1.45941,-7.54026 4.13498,-6.81057 z"
         style="fill:#ffccaa;stroke:#000000;stroke-width:0.96315867;stroke-opacity:1" />
      <path
         sodipodi:nodetypes="ccccccccccccccc"
         inkscape:connector-curvature="0"
         id="path3084"
         d="m 866.88234,854.82386 -3.16988,5.6344 2.05956,4.97253 2.60088,19.41122 -2.48988,4.77104 0.38243,4.11162 5.28169,2.53417 20.84251,-0.60088 4.81144,-1.80267 0.52384,-5.77071 -3.47649,-3.73266 1.34298,-17.53648 3.17861,-5.40796 -4.45875,-6.58362 z"
         style="fill:#ffb42a;fill-opacity:1;stroke:#000000;stroke-width:0.84123987px;stroke-linecap:butt;stroke-linejoin:miter;stroke-opacity:1" />
    </g>
    <path
       style="fill:#ffb42a;fill-opacity:1;stroke:#000000;stroke-width:0.84123987px;stroke-linecap:butt;stroke-linejoin:miter;stroke-opacity:1"
       d="m 115.01989,790.03772 -10.41824,-4.68501 -11.384185,0.69022 -11.7258,6.83412 -22.48365,7.76928 -10.16069,0.50469 -1.57453,10.37521 6.23251,20.93845 6.04299,3.97953 7.15919,-6.38758 21.56001,-6.46431 8.98173,-0.24497 15.149605,-5.48083 7.05738,-9.6909 z"
       id="path3086"
       inkscape:connector-curvature="0"
       sodipodi:nodetypes="ccccccccccccccc" />
    <path
       style="fill:#483737;fill-opacity:1;stroke:#000000;stroke-width:0.96315867px;stroke-linecap:butt;stroke-linejoin:miter;stroke-opacity:1"
       d="m 178.33148,1037.9877 38.38204,-32.1514 6.84492,-6.45775 -4.46418,-5.40703 -23.0369,6.44088 -15.91756,-1.83598 -17.51473,14.69668 1.93865,5.9207 0.33449,6.569 6.75936,9.5691 z"
       id="path3864"
       inkscape:connector-curvature="0"
       sodipodi:nodetypes="ccccccccccc" />
    <path
       style="fill:#b45500;fill-opacity:1;stroke:#000000;stroke-width:0.84123987px;stroke-linecap:butt;stroke-linejoin:miter;stroke-opacity:1"
       d="m 137.78024,970.59441 6.92841,-5.83493 7.08329,-5.37964 6.98492,-0.33568 7.32988,7.38052 10.08572,10.54029 12.24148,9.4308 -1.78659,10.766 -10.3955,9.17543 -8.90227,5.7803 -5.61316,1.1935 -11.87335,-3.3443 -5.02764,-12.19653 -5.93945,-10.483 -3.11032,-5.2393 -2.786,-5.831 z"
       id="path3866"
       inkscape:connector-curvature="0"
       sodipodi:nodetypes="ccccccccccccccccc" />
    <path
       sodipodi:nodetypes="cccccccccccc"
       inkscape:connector-curvature="0"
       id="path3062"
       d="m 15.499265,1005.4872 19.77693,33.7282 c 0.0707,0.7872 15.39233,8.8557 15.39233,8.8557 l 2.63598,-5.4575 -6.75027,-8.5253 1.2073,-8.8798 6.2366,-11.0969 -11.43206,-19.80071 -6.16753,0.88107 -6.5274,-0.81113 -10.59754,4.99512 z"
       style="fill:#000000;fill-opacity:1;stroke:#000000;stroke-width:0.96315867px;stroke-linecap:butt;stroke-linejoin:miter;stroke-opacity:1" />
    <path
       sodipodi:nodetypes="ccccccccccccccccc"
       inkscape:connector-curvature="0"
       id="path3064"
       d="m 76.448755,960.84717 6.94937,5.80998 6.52791,6.04144 1.54343,6.8206 -5.9955,8.50011 -8.62878,11.76295 -7.16184,13.69305 -10.91268,0.1101 -10.84126,-8.6445 -7.23831,-7.76304 -2.15023,-5.32063 1.23187,-12.27389 11.13811,-7.06893 9.2926,-7.66978 4.61944,-3.97277 5.25868,-3.75632 z"
       style="fill:#d45500;fill-opacity:1;stroke:#000000;stroke-width:0.84123987px;stroke-linecap:butt;stroke-linejoin:miter;stroke-opacity:1" />
    <path
       style="fill:#b45500;fill-opacity:1;stroke:#000000;stroke-width:0.84123987px;stroke-linecap:butt;stroke-linejoin:miter;stroke-opacity:1"
       d="m 76.554175,909.31711 39.033075,-25.96872 7.38427,2.16495 6.11451,8.28453 3.48731,10.66634 17.24517,32.28836 4.13763,5.77245 3.90063,4.35732 -1.0512,8.52566 -20.94845,14.66829 -9.8754,1.46638 -4.53852,-8.14413 -4.19533,-5.23246 -21.934385,-21.01033 -15.75069,-9.31566 -6.20751,-12.61539 z"
       id="path3868"
       inkscape:connector-curvature="0"
       sodipodi:nodetypes="ccccccccccccccccc" />
    <path
       sodipodi:nodetypes="ccccccccccccccccc"
       inkscape:connector-curvature="0"
       id="path3066"
       d="m 86.183445,882.67084 43.660775,17.079 2.46203,7.29061 -3.27915,9.76051 -6.73711,8.97459 -16.55766,32.64628 -2.35528,6.7003 -1.33198,5.6945 -7.586785,4.029 -24.03107,-8.7466 -6.8655,-7.2483 4.06813,-8.3891 1.8798,-6.4378 4.62963,-30.01867 -1.40329,-18.24544 6.77343,-12.32078 z"
       style="fill:#d45500;fill-opacity:1;stroke:#000000;stroke-width:0.84123987px;stroke-linecap:butt;stroke-linejoin:miter;stroke-opacity:1" />
    <g
       id="g3870"
       transform="translate(-648.54642,-3.9568268)">
      <path
         style="fill:#ffb380;stroke:none"
         d="m 755.78184,756.42719 3.829,27.53256 23.40676,-1.05004 -0.55263,-23.49447 -20.3046,-4.62563 z"
         id="path3060"
         inkscape:connector-curvature="0"
         sodipodi:nodetypes="cccccc" />
      <g
         id="g3076"
         transform="matrix(1.1948301,-0.21068079,0.21068079,1.1948301,93.969696,-42.353087)">
        <path
           transform="translate(-1.0101525,688.32157)"
           d="m 454.06358,33.72073 a 22.728432,22.728432 0 1 1 -45.45687,0 22.728432,22.728432 0 1 1 45.45687,0 z"
           sodipodi:ry="22.728432"
           sodipodi:rx="22.728432"
           sodipodi:cy="33.72073"
           sodipodi:cx="431.33514"
           id="path3078"
           style="fill:#ffccaa;fill-opacity:1;fill-rule:evenodd;stroke:none"
           sodipodi:type="arc" />
        <path
           transform="translate(0,692.36218)"
           inkscape:connector-curvature="0"
           id="path3080"
           d="m 452.54834,28.164889 4.04061,21.213204 -2.52538,13.131983 -16.16244,4.04061 -7.07107,-4.545687 -1.51523,-13.637059 z"
           style="fill:#ffccaa;stroke:none" />
      </g>
    </g>
    <path
       sodipodi:nodetypes="cccccccccccccccccccccc"
       inkscape:connector-curvature="0"
       id="path3068"
       d="m 103.63627,761.59953 30.52805,11.2521 0.16225,7.5914 7.87486,2.34913 4.51321,24.32256 -2.3637,11.0483 -5.27387,14.23762 -4.29576,21.99735 -3.4934,14.02774 2.67498,13.02628 -1.5488,17.17161 -5.86295,3.58657 -53.644745,-10.1576 -6.92815,-9.15364 2.51101,-10.80533 2.04556,-9.03688 5.02998,-8.51066 -0.82283,-7.65714 6.83067,-52.17916 3.80286,-15.54806 15.678225,-9.50464 z"
       style="fill:#ffd42a;fill-opacity:1;stroke:#000000;stroke-width:0.96315867;stroke-opacity:1" />
    <g
       id="g3860"
       transform="matrix(-0.34202015,-0.93969262,0.93969262,-0.34202015,-397.07766,1847.5872)">
      <path
         style="fill:#ffccaa;stroke:#000000;stroke-width:0.96315867;stroke-opacity:1"
         d="m 755.09663,899.34583 18.48581,-0.97294 -0.48647,8.5132 3.64851,10.09423 0.24324,12.0401 -2.43234,7.29702 -2.43234,3.40529 -9.72938,0.97293 -6.81055,-1.45941 -0.97295,-5.35115 0.50603,-0.97294 3.40528,-7.29702 -0.48647,-1.94588 -1.96542,-3.40528 -1.45941,-7.54026 4.13498,-6.81057 z"
         id="path3070"
         inkscape:connector-curvature="0"
         sodipodi:nodetypes="ccccccccccccccccc" />
      <path
         style="fill:#ffd42a;fill-opacity:1;stroke:#000000;stroke-width:0.84123987px;stroke-linecap:butt;stroke-linejoin:miter;stroke-opacity:1"
         d="m 749.0252,861.96672 -3.16988,5.6344 2.05956,4.97253 2.60088,19.41122 -2.48988,4.77104 0.38243,4.11162 5.28169,2.53417 20.84251,-0.60088 4.81144,-1.80267 0.52384,-5.77071 -3.47649,-3.73266 1.34298,-17.53648 3.17861,-5.40796 -4.45875,-6.58362 z"
         id="path3072"
         inkscape:connector-curvature="0"
         sodipodi:nodetypes="ccccccccccccccc" />
    </g>
    <path
       sodipodi:nodetypes="ccccccccccccccc"
       inkscape:connector-curvature="0"
       id="path3074"
       d="m 98.696575,796.6526 2.137905,11.2213 7.09511,8.9295 12.32383,5.68535 19.26032,13.96122 6.24132,8.03367 9.402,-4.6612 13.57695,-17.11518 -0.20626,-7.23268 -9.33872,-2.20071 -17.66161,-13.95316 -5.35236,-7.21687 -13.17907,-9.26618 -11.98629,-0.22261 z"
       style="fill:#ffd42a;fill-opacity:1;stroke:#000000;stroke-width:0.84123987px;stroke-linecap:butt;stroke-linejoin:miter;stroke-opacity:1" />
  </g>
</svg>
